{
    "asset" : {
        "generator" : "Khronos glTF Blender I/O v1.6.7",
        "version" : "2.0"
    },
    "scene" : 0,
    "scenes" : [
        {
            "name" : "Scene",
            "nodes" : [
                0,
                1,
                2,
                3,
                4,
                5,
                6,
                7
            ]
        }
    ],
    "nodes" : [
        {
            "name" : "Light",
            "rotation" : [
                0.16907575726509094,
                0.7558803558349609,
                -0.27217137813568115,
                0.570947527885437
            ],
            "translation" : [
                4.076245307922363,
                5.903861999511719,
                -1.0054539442062378
            ]
        },
        {
            "name" : "Camera",
            "rotation" : [
                0.483536034822464,
                0.33687159419059753,
                -0.20870360732078552,
                0.7804827094078064
            ],
            "translation" : [
                7.358891487121582,
                4.958309173583984,
                6.925790786743164
            ]
        },
        {
            "mesh" : 0,
            "name" : "Cube",
            "translation" : [
                -5.18387508392334,
                12.321503639221191,
                -3.3360443115234375
            ]
        },
        {
            "mesh" : 1,
            "name" : "Cube.001",
            "translation" : [
                -15.60110092163086,
                1.6009883880615234,
                3.206584930419922
            ]
        },
        {
            "mesh" : 2,
            "name" : "Cube.002",
            "translation" : [
                -16.177684783935547,
                1.4074478149414062,
                -7.226844787597656
            ]
        },
        {
            "mesh" : 3,
            "name" : "Cube.003",
            "translation" : [
                -24.994199752807617,
                1.7328910827636719,
                -2.8978443145751953
            ]
        },
        {
            "mesh" : 4,
            "name" : "Cube.004",
            "translation" : [
                0.012771755456924438,
                5.710029602050781,
                0.03074026107788086
            ]
        },
        {
            "mesh" : 5,
            "name" : "Cube.005",
            "rotation" : [
                -0.43373581767082214,
                -0.4352574944496155,
                0.5572709441184998,
                0.5584561228752136
            ],
            "translation" : [
                -1.8919990062713623,
                8.759095191955566,
                -14.49505615234375
            ]
        }
    ],
    "meshes" : [
        {
            "name" : "Cube.017",
            "primitives" : [
                {
                    "attributes" : {
                        "POSITION" : 0,
                        "NORMAL" : 1,
                        "TEXCOORD_0" : 2
                    },
                    "indices" : 3
                }
            ]
        },
        {
            "name" : "Cube.028",
            "primitives" : [
                {
                    "attributes" : {
                        "POSITION" : 4,
                        "NORMAL" : 5,
                        "TEXCOORD_0" : 6
                    },
                    "indices" : 7
                }
            ]
        },
        {
            "name" : "Cube.029",
            "primitives" : [
                {
                    "attributes" : {
                        "POSITION" : 8,
                        "NORMAL" : 9,
                        "TEXCOORD_0" : 10
                    },
                    "indices" : 11
                }
            ]
        },
        {
            "name" : "Cube.030",
            "primitives" : [
                {
                    "attributes" : {
                        "POSITION" : 12,
                        "NORMAL" : 13,
                        "TEXCOORD_0" : 14
                    },
                    "indices" : 15
                }
            ]
        },
        {
            "name" : "Cube.031",
            "primitives" : [
                {
                    "attributes" : {
                        "POSITION" : 16,
                        "NORMAL" : 17,
                        "TEXCOORD_0" : 18
                    },
                    "indices" : 19
                }
            ]
        },
        {
            "name" : "Cube.032",
            "primitives" : [
                {
                    "attributes" : {
                        "POSITION" : 20,
                        "NORMAL" : 21,
                        "TEXCOORD_0" : 22
                    },
                    "indices" : 23
                }
            ]
        }
    ],
    "accessors" : [
        {
            "bufferView" : 0,
            "componentType" : 5126,
            "count" : 600,
            "max" : [
                14.060464859008789,
                12.339028358459473,
                4.639031887054443
            ],
            "min" : [
                -2.5381858348846436,
                -12.321505546569824,
                -5.918920516967773
            ],
            "type" : "VEC3"
        },
        {
            "bufferView" : 1,
            "componentType" : 5126,
            "count" : 600,
            "type" : "VEC3"
        },
        {
            "bufferView" : 2,
            "componentType" : 5126,
            "count" : 600,
            "type" : "VEC2"
        },
        {
            "bufferView" : 3,
            "componentType" : 5123,
            "count" : 900,
            "type" : "SCALAR"
        },
        {
            "bufferView" : 4,
            "componentType" : 5126,
            "count" : 49,
            "max" : [
                2.4650001525878906,
                3.0144195556640625,
                1.4951248168945312
            ],
            "min" : [
                -2.4650001525878906,
                -1.600992202758789,
                -1.4951248168945312
            ],
            "type" : "VEC3"
        },
        {
            "bufferView" : 5,
            "componentType" : 5126,
            "count" : 49,
            "type" : "VEC3"
        },
        {
            "bufferView" : 6,
            "componentType" : 5126,
            "count" : 49,
            "type" : "VEC2"
        },
        {
            "bufferView" : 7,
            "componentType" : 5123,
            "count" : 96,
            "type" : "SCALAR"
        },
        {
            "bufferView" : 8,
            "componentType" : 5126,
            "count" : 96,
            "max" : [
                2.8669533729553223,
                3.4276013374328613,
                3.5923919677734375
            ],
            "min" : [
                -2.8669533729553223,
                -3.4276013374328613,
                -3.5923919677734375
            ],
            "type" : "VEC3"
        },
        {
            "bufferView" : 9,
            "componentType" : 5126,
            "count" : 96,
            "type" : "VEC3"
        },
        {
            "bufferView" : 10,
            "componentType" : 5126,
            "count" : 96,
            "type" : "VEC2"
        },
        {
            "bufferView" : 11,
            "componentType" : 5123,
            "count" : 132,
            "type" : "SCALAR"
        },
        {
            "bufferView" : 12,
            "componentType" : 5126,
            "count" : 75,
            "max" : [
                3.540210485458374,
                3.686105489730835,
                1.629515528678894
            ],
            "min" : [
                -3.495769500732422,
                -1.7335606813430786,
                -1.6054561138153076
            ],
            "type" : "VEC3"
        },
        {
            "bufferView" : 13,
            "componentType" : 5126,
            "count" : 75,
            "type" : "VEC3"
        },
        {
            "bufferView" : 14,
            "componentType" : 5126,
            "count" : 75,
            "type" : "VEC2"
        },
        {
            "bufferView" : 15,
            "componentType" : 5123,
            "count" : 132,
            "type" : "SCALAR"
        },
        {
            "bufferView" : 16,
            "componentType" : 5126,
            "count" : 96,
            "max" : [
                1.1650307178497314,
                47.05340576171875,
                2.1395750045776367
            ],
            "min" : [
                -4.169692516326904,
                -5.709307670593262,
                -5.932845115661621
            ],
            "type" : "VEC3"
        },
        {
            "bufferView" : 17,
            "componentType" : 5126,
            "count" : 96,
            "type" : "VEC3"
        },
        {
            "bufferView" : 18,
            "componentType" : 5126,
            "count" : 96,
            "type" : "VEC2"
        },
        {
            "bufferView" : 19,
            "componentType" : 5123,
            "count" : 144,
            "type" : "SCALAR"
        },
        {
            "bufferView" : 20,
            "componentType" : 5126,
            "count" : 24,
            "max" : [
                0.23551218211650848,
                11.89437198638916,
                0.01952059008181095
            ],
            "min" : [
                -0.23551218211650848,
                -11.89437198638916,
                -0.01952059008181095
            ],
            "type" : "VEC3"
        },
        {
            "bufferView" : 21,
            "componentType" : 5126,
            "count" : 24,
            "type" : "VEC3"
        },
        {
            "bufferView" : 22,
            "componentType" : 5126,
            "count" : 24,
            "type" : "VEC2"
        },
        {
            "bufferView" : 23,
            "componentType" : 5123,
            "count" : 36,
            "type" : "SCALAR"
        }
    ],
    "bufferViews" : [
        {
            "buffer" : 0,
            "byteLength" : 7200,
            "byteOffset" : 0
        },
        {
            "buffer" : 0,
            "byteLength" : 7200,
            "byteOffset" : 7200
        },
        {
            "buffer" : 0,
            "byteLength" : 4800,
            "byteOffset" : 14400
        },
        {
            "buffer" : 0,
            "byteLength" : 1800,
            "byteOffset" : 19200
        },
        {
            "buffer" : 0,
            "byteLength" : 588,
            "byteOffset" : 21000
        },
        {
            "buffer" : 0,
            "byteLength" : 588,
            "byteOffset" : 21588
        },
        {
            "buffer" : 0,
            "byteLength" : 392,
            "byteOffset" : 22176
        },
        {
            "buffer" : 0,
            "byteLength" : 192,
            "byteOffset" : 22568
        },
        {
            "buffer" : 0,
            "byteLength" : 1152,
            "byteOffset" : 22760
        },
        {
            "buffer" : 0,
            "byteLength" : 1152,
            "byteOffset" : 23912
        },
        {
            "buffer" : 0,
            "byteLength" : 768,
            "byteOffset" : 25064
        },
        {
            "buffer" : 0,
            "byteLength" : 264,
            "byteOffset" : 25832
        },
        {
            "buffer" : 0,
            "byteLength" : 900,
            "byteOffset" : 26096
        },
        {
            "buffer" : 0,
            "byteLength" : 900,
            "byteOffset" : 26996
        },
        {
            "buffer" : 0,
            "byteLength" : 600,
            "byteOffset" : 27896
        },
        {
            "buffer" : 0,
            "byteLength" : 264,
            "byteOffset" : 28496
        },
        {
            "buffer" : 0,
            "byteLength" : 1152,
            "byteOffset" : 28760
        },
        {
            "buffer" : 0,
            "byteLength" : 1152,
            "byteOffset" : 29912
        },
        {
            "buffer" : 0,
            "byteLength" : 768,
            "byteOffset" : 31064
        },
        {
            "buffer" : 0,
            "byteLength" : 288,
            "byteOffset" : 31832
        },
        {
            "buffer" : 0,
            "byteLength" : 288,
            "byteOffset" : 32120
        },
        {
            "buffer" : 0,
            "byteLength" : 288,
            "byteOffset" : 32408
        },
        {
            "buffer" : 0,
            "byteLength" : 192,
            "byteOffset" : 32696
        },
        {
            "buffer" : 0,
            "byteLength" : 72,
            "byteOffset" : 32888
        }
    ],
    "buffers" : [
        {
            "byteLength" : 32960,
            "uri" : "data:application/octet-stream;base64,"
        }
    ]
}
